<svg width="86" height="87" viewBox="0 0 86 87" fill="none" xmlns="http://www.w3.org/2000/svg">
<path d="M23 35.3232V83.3232M55 18.8432L51 35.3232H74.32C75.562 35.3232 76.7869 35.6124 77.8977 36.1678C79.0085 36.7232 79.9748 37.5297 80.72 38.5232C81.4652 39.5168 81.9688 40.6702 82.191 41.8922C82.4131 43.1141 82.3477 44.371 82 45.5632L72.68 77.5632C72.1953 79.225 71.1848 80.6847 69.8 81.7232C68.4152 82.7618 66.731 83.3232 65 83.3232H11C8.87827 83.3232 6.84344 82.4804 5.34315 80.9801C3.84285 79.4798 3 77.445 3 75.3232V43.3232C3 41.2015 3.84285 39.1667 5.34315 37.6664C6.84344 36.1661 8.87827 35.3232 11 35.3232H22.04C23.5283 35.3225 24.9869 34.9065 26.2518 34.1221C27.5167 33.3378 28.5377 32.2161 29.2 30.8832L43 3.32324C44.8863 3.3466 46.743 3.79592 48.4312 4.63763C50.1195 5.47933 51.5957 6.69167 52.7496 8.18405C53.9035 9.67644 54.7053 11.4103 55.0949 13.2561C55.4846 15.1018 55.4522 17.0118 55 18.8432Z" stroke="url(#paint0_linear_615_89)" stroke-width="6" stroke-linecap="round" stroke-linejoin="round"/>
<defs>
<linearGradient id="paint0_linear_615_89" x1="42.66" y1="3.32324" x2="42.66" y2="83.3232" gradientUnits="userSpaceOnUse">
<stop stop-color="#E61C3E"/>
<stop offset="1" stop-color="#FFCC23"/>
</linearGradient>
</defs>
</svg>
