<svg width="18" height="20" viewBox="0 0 18 20" fill="none" xmlns="http://www.w3.org/2000/svg">
<path d="M15.7584 4.27729C15.6183 4.20752 15.4818 4.13105 15.3496 4.04814C14.9651 3.80333 14.6125 3.51489 14.2995 3.189C13.5165 2.32614 13.224 1.45075 13.1162 0.837886H13.1206C13.0306 0.329141 13.0678 0 13.0734 0H9.50665V13.2818C9.50665 13.4602 9.50665 13.6364 9.49886 13.8106C9.49886 13.8322 9.49669 13.8522 9.49541 13.8755C9.49541 13.8851 9.49541 13.8951 9.49325 13.9051C9.49325 13.9076 9.49325 13.9101 9.49325 13.9126C9.45565 14.3892 9.29701 14.8495 9.03132 15.2532C8.7656 15.6568 8.40095 15.9914 7.96946 16.2275C7.51974 16.4739 7.0111 16.6031 6.49368 16.6025C4.83187 16.6025 3.48504 15.2976 3.48504 13.686C3.48504 12.0744 4.83187 10.7695 6.49368 10.7695C6.80827 10.7692 7.1209 10.8169 7.42 10.9107L7.42433 7.41338C6.51636 7.30044 5.59391 7.36992 4.71523 7.61745C3.83653 7.86501 3.02065 8.28525 2.31904 8.85164C1.70429 9.36602 1.18746 9.97978 0.791809 10.6653C0.641232 10.9153 0.0731597 11.9198 0.00437364 13.5502C-0.0388847 14.4755 0.249691 15.4342 0.387263 15.8305V15.8388C0.473807 16.0721 0.809112 16.8683 1.35556 17.5395C1.79618 18.078 2.31675 18.5509 2.90055 18.9432V18.9349L2.9092 18.9432C4.6359 20.0732 6.55037 19.999 6.55037 19.999C6.88178 19.9861 7.99195 19.999 9.25269 19.4236C10.651 18.7857 11.4471 17.8353 11.4471 17.8353C11.9557 17.2675 12.36 16.6204 12.6429 15.9217C12.9657 15.1046 13.0734 14.1247 13.0734 13.7331V6.68675C13.1167 6.71175 13.693 7.0788 13.693 7.0788C13.693 7.0788 14.5232 7.59128 15.8186 7.92503C16.7479 8.16251 18 8.2125 18 8.2125V4.80267C17.5613 4.84849 16.6705 4.71519 15.7584 4.27729Z" fill="white"/>
</svg>
