<svg width="87" height="76" viewBox="0 0 87 76" fill="none" xmlns="http://www.w3.org/2000/svg">
<path d="M30.533 72.3235V55.9235L38.133 56.7235C40.3456 56.6006 42.4394 55.6832 44.0297 54.14C45.6199 52.5968 46.5997 50.5314 46.789 48.3235V25.5235C46.8155 19.7609 44.5518 14.2238 40.4957 10.1302C36.4397 6.03669 30.9236 3.72206 25.161 3.69554C19.3984 3.66902 13.8612 5.93278 9.7677 9.98882C5.67416 14.0449 3.35953 19.5609 3.33301 25.3235C3.33301 36.5235 5.95701 37.5395 7.33301 43.5235C8.26294 47.1374 8.30275 50.9229 7.44901 54.5555L3.33301 72.3235M74.5332 63.5233C80.1565 57.8994 83.3166 50.2728 83.3188 42.3198C83.3211 34.3668 80.1653 26.7384 74.5452 21.1113M63.3334 52.3229C64.6421 51.0144 65.6784 49.4595 66.3824 47.7481C67.0864 46.0366 67.444 44.2026 67.4347 42.352C67.4254 40.5014 67.0493 38.6711 66.3282 36.9668C65.6071 35.2625 64.5552 33.7181 63.2334 32.4229" stroke="url(#paint0_linear_615_137)" stroke-width="6" stroke-linecap="round" stroke-linejoin="round"/>
<defs>
<linearGradient id="paint0_linear_615_137" x1="43.3259" y1="3.69531" x2="43.3259" y2="72.3235" gradientUnits="userSpaceOnUse">
<stop stop-color="#E61C3E"/>
<stop offset="1" stop-color="#FFCC23"/>
</linearGradient>
</defs>
</svg>
