<svg width="19" height="20" viewBox="0 0 19 20" fill="none" xmlns="http://www.w3.org/2000/svg">
<path d="M16.0919 4.27729C15.9518 4.20752 15.8153 4.13105 15.6831 4.04814C15.2986 3.80333 14.946 3.51489 14.633 3.189C13.85 2.32614 13.5575 1.45075 13.4497 0.837886H13.4541C13.3641 0.329141 13.4013 0 13.4069 0H9.84015V13.2818C9.84015 13.4602 9.84015 13.6364 9.83235 13.8106C9.83235 13.8322 9.83019 13.8522 9.82891 13.8755C9.82891 13.8851 9.82891 13.8951 9.82675 13.9051C9.82675 13.9076 9.82675 13.9101 9.82675 13.9126C9.78915 14.3892 9.63051 14.8495 9.36482 15.2532C9.0991 15.6568 8.73445 15.9914 8.30296 16.2275C7.85323 16.4739 7.3446 16.6031 6.82718 16.6025C5.16537 16.6025 3.81854 15.2976 3.81854 13.686C3.81854 12.0744 5.16537 10.7695 6.82718 10.7695C7.14176 10.7692 7.4544 10.8169 7.7535 10.9107L7.75782 7.41338C6.84985 7.30044 5.92741 7.36992 5.04873 7.61745C4.17002 7.86501 3.35415 8.28525 2.65254 8.85164C2.03779 9.36602 1.52096 9.97978 1.1253 10.6653C0.974728 10.9153 0.406656 11.9198 0.33787 13.5502C0.294611 14.4755 0.583187 15.4342 0.720759 15.8305V15.8388C0.807303 16.0721 1.14261 16.8683 1.68905 17.5395C2.12967 18.078 2.65024 18.5509 3.23404 18.9432V18.9349L3.24269 18.9432C4.9694 20.0732 6.88387 19.999 6.88387 19.999C7.21528 19.9861 8.32544 19.999 9.58618 19.4236C10.9845 18.7857 11.7806 17.8353 11.7806 17.8353C12.2892 17.2675 12.6935 16.6204 12.9764 15.9217C13.2992 15.1046 13.4069 14.1247 13.4069 13.7331V6.68675C13.4502 6.71175 14.0265 7.0788 14.0265 7.0788C14.0265 7.0788 14.8567 7.59128 16.1521 7.92503C17.0814 8.16251 18.3335 8.2125 18.3335 8.2125V4.80267C17.8948 4.84849 17.004 4.71519 16.0919 4.27729Z" fill="white"/>
</svg>
